<svg t="1700409025172" class="icon" viewBox="0 0 1035 1024" version="1.1" xmlns="http://www.w3.org/2000/svg" p-id="24815" width="128" height="128"><path d="M496.627651 870.505455l-39.505697 61.20549s-35.944516 14.404916-3.561181 53.922936 190.590961 68.340174 291.31447-17.97842 104.33398-190.590961 89.867452-269.77487A657.093361 657.093361 0 0 0 1035.093018 222.333531v-13.788795a744.55794 744.55794 0 0 0-24.176599-183.148216c-21.5396-7.122362-388.316607-115.128425-672.496394 176.21069-79.183909-14.404916-183.468599-10.843735-269.77487 89.867452S11.17336 550.36883 50.716025 582.752166s53.922936-3.561181 53.922936-3.561181l61.205489-39.51802 330.795524 330.83249z m302.059626-424.421315c-111.407053 89.867452-201.434696 7.122362-208.569381 0s-89.867452-97.150006 0-208.569381c100.723509-93.440956 201.434696-7.122362 212.130562-3.561181 7.282554 7.122362 89.867452 111.407053-3.561181 212.130562z" fill="#D0211F" p-id="24816"></path><path d="M154.963748 687.098468l97.150006 97.150006 97.150006 97.150006c10.535674 10.535674 59.036742 5.113807 97.618258-1.232243l-289.453785-289.577008c-5.729928 39.197637-10.843735 88.166957-2.464485 96.533884zM51.295179 873.906445l104.284691-104.284691a32.580494 32.580494 0 0 0 0-43.12849 32.580494 32.580494 0 0 0-43.128491 0L8.068109 830.839566a32.81462 32.81462 0 0 0 0 43.128491 32.789975 32.789975 0 0 0 43.22707 0z m179.747227-64.618802a32.580494 32.580494 0 0 0-43.128491 0L33.279792 963.934088a32.580494 32.580494 0 0 0 0 43.128491 32.580494 32.580494 0 0 0 43.128491 0l154.646445-154.646445a32.580494 32.580494 0 0 0-0.012322-43.116168z m28.822154 71.901356l-75.462536 75.462536a32.580494 32.580494 0 0 0 0 43.12849 32.580494 32.580494 0 0 0 43.12849 0l75.462537-75.462536a32.580494 32.580494 0 0 0 0-43.12849 32.580494 32.580494 0 0 0-43.128491 0z" fill="#D0211F" p-id="24817"></path></svg>
